<svg class="marks" width="536" height="535" viewBox="0 0 536 535" version="1.1" xmlns="http://www.w3.org/2000/svg" xmlns:xlink="http://www.w3.org/1999/xlink"><g transform="translate(31,5)"><g class="mark-group role-frame root"><g transform="translate(0,0)"><path class="background" d="M0.5,0.5h500v500h-500Z" style="fill: none; stroke: #ddd; stroke-width: 0;"></path><g><g class="mark-rect role-mark layer_0_marks"><path d="M0,0h250v250h-250Z" style="fill: rgb(28, 49, 133);"></path><path d="M250,250h250v250h-250Z" style="fill: rgb(173, 223, 183);"></path><path d="M0,250h250v250h-250Z" style="fill: rgb(239, 249, 189);"></path></g><g class="mark-text role-mark layer_1_marks"><text text-anchor="middle" transform="translate(125,136)" style="font-family: sans-serif; font-size: 35px; fill: white;">0.87</text><text text-anchor="middle" transform="translate(375,386)" style="font-family: sans-serif; font-size: 35px; fill: black;">-0.12</text><text text-anchor="middle" transform="translate(125,386)" style="font-family: sans-serif; font-size: 35px; fill: black;">-0.43</text></g><g class="mark-group role-axis"><g transform="translate(0.5,500.5)"><path class="background" d="M0,0h0v0h0Z" style="pointer-events: none; fill: none;"></path><g><g class="mark-rule role-axis-tick" style="pointer-events: none;"><line transform="translate(124,0)" x2="0" y2="5" style="fill: none; stroke: #888; stroke-width: 0; opacity: 1;"></line><line transform="translate(374,0)" x2="0" y2="5" style="fill: none; stroke: #888; stroke-width: 0; opacity: 1;"></line></g><g class="mark-text role-axis-label" style="pointer-events: none;"><text text-anchor="middle" transform="translate(124,21)" style="font-family: Helvetica Neue; font-size: 18px; font-weight: normal; fill: #000; opacity: 1;">petalLength</text><text text-anchor="middle" transform="translate(374,21)" style="font-family: Helvetica Neue; font-size: 18px; font-weight: normal; fill: #000; opacity: 1;">sepalLength</text></g><g class="mark-rule role-axis-domain" style="pointer-events: none;"><line transform="translate(0,0)" x2="500" y2="0" style="fill: none; stroke: #888; stroke-width: 0; opacity: 1;"></line></g></g></g></g><g class="mark-group role-axis"><g transform="translate(0.5,0.5)"><path class="background" d="M0,0h0v0h0Z" style="pointer-events: none; fill: none;"></path><g><g class="mark-rule role-axis-tick" style="pointer-events: none;"><line transform="translate(0,124)" x2="-5" y2="0" style="fill: none; stroke: #888; stroke-width: 0; opacity: 1;"></line><line transform="translate(0,374)" x2="-5" y2="0" style="fill: none; stroke: #888; stroke-width: 0; opacity: 1;"></line></g><g class="mark-text role-axis-label" style="pointer-events: none;"><text text-anchor="middle" transform="translate(-7,124) rotate(270) translate(0,-4)" style="font-family: Helvetica Neue; font-size: 18px; font-weight: normal; fill: #000; opacity: 1;">sepalLength</text><text text-anchor="middle" transform="translate(-7,374) rotate(270) translate(0,-4)" style="font-family: Helvetica Neue; font-size: 18px; font-weight: normal; fill: #000; opacity: 1;">sepalWidth</text></g><g class="mark-rule role-axis-domain" style="pointer-events: none;"><line transform="translate(0,0)" x2="0" y2="500" style="fill: none; stroke: #888; stroke-width: 0; opacity: 1;"></line></g></g></g></g></g></g></g></g></svg>