<svg class="marks" width="913" height="305" viewBox="0 0 913 305" version="1.1" xmlns="http://www.w3.org/2000/svg" xmlns:xlink="http://www.w3.org/1999/xlink"><g transform="translate(43,25)"><g class="mark-group role-frame root"><g transform="translate(0,0)"><path class="background" d="M0,0h0v0h0Z" style="fill: none;"></path><g><g class="mark-group role-row-header row_header"><g transform="translate(0,0)"><path class="background" d="M0,0h0v140h0Z" style="fill: none;"></path><g><g class="mark-group role-axis"><g transform="translate(0.5,0.5)"><path class="background" d="M0,0h0v0h0Z" style="pointer-events: none; fill: none;"></path><g><g class="mark-rule role-axis-tick" style="pointer-events: none;"><line transform="translate(0,117)" x2="-5" y2="0" style="fill: none; stroke: #888; stroke-width: 1; opacity: 1;"></line><line transform="translate(0,70)" x2="-5" y2="0" style="fill: none; stroke: #888; stroke-width: 1; opacity: 1;"></line><line transform="translate(0,23)" x2="-5" y2="0" style="fill: none; stroke: #888; stroke-width: 1; opacity: 1;"></line></g><g class="mark-text role-axis-label" style="pointer-events: none;"><text text-anchor="end" transform="translate(-7,119.66666666666667)" style="font-family: Helvetica Neue; font-size: 10px; font-weight: normal; fill: #000; opacity: 1;">20</text><text text-anchor="end" transform="translate(-7,73)" style="font-family: Helvetica Neue; font-size: 10px; font-weight: normal; fill: #000; opacity: 1;">40</text><text text-anchor="end" transform="translate(-7,26.33333333333333)" style="font-family: Helvetica Neue; font-size: 10px; font-weight: normal; fill: #000; opacity: 1;">60</text></g><g class="mark-rule role-axis-domain" style="pointer-events: none;"><line transform="translate(0,140)" x2="0" y2="-140" style="fill: none; stroke: #888; stroke-width: 1; opacity: 1;"></line></g><g class="mark-text role-axis-title" style="pointer-events: none;"><text text-anchor="middle" transform="translate(-27,70) rotate(-90) translate(0,-2)" style="font-family: Helvetica Neue; font-size: 11px; font-weight: normal; fill: #000; opacity: 1;">Mean of yield</text></g></g></g></g></g></g></g><g class="mark-group role-column-header column_header"><g transform="translate(0,0)"><path class="background" d="M0,0h140v0h-140Z" style="fill: none;"></path><g><g class="mark-text role-title" style="pointer-events: none;"><text text-anchor="middle" transform="translate(70,-12)" style="font-family: Helvetica Neue; font-size: 10px; fill: #000; opacity: 1;">Crookston</text></g></g></g><g transform="translate(145,0)"><path class="background" d="M0,0h140v0h-140Z" style="fill: none;"></path><g><g class="mark-text role-title" style="pointer-events: none;"><text text-anchor="middle" transform="translate(70,-12)" style="font-family: Helvetica Neue; font-size: 10px; fill: #000; opacity: 1;">Duluth</text></g></g></g><g transform="translate(290,0)"><path class="background" d="M0,0h140v0h-140Z" style="fill: none;"></path><g><g class="mark-text role-title" style="pointer-events: none;"><text text-anchor="middle" transform="translate(70,-12)" style="font-family: Helvetica Neue; font-size: 10px; fill: #000; opacity: 1;">Grand Rapids</text></g></g></g><g transform="translate(435,0)"><path class="background" d="M0,0h140v0h-140Z" style="fill: none;"></path><g><g class="mark-text role-title" style="pointer-events: none;"><text text-anchor="middle" transform="translate(70,-12)" style="font-family: Helvetica Neue; font-size: 10px; fill: #000; opacity: 1;">Morris</text></g></g></g><g transform="translate(580,0)"><path class="background" d="M0,0h140v0h-140Z" style="fill: none;"></path><g><g class="mark-text role-title" style="pointer-events: none;"><text text-anchor="middle" transform="translate(70,-12)" style="font-family: Helvetica Neue; font-size: 10px; fill: #000; opacity: 1;">University Farm</text></g></g></g><g transform="translate(725,0)"><path class="background" d="M0,0h140v0h-140Z" style="fill: none;"></path><g><g class="mark-text role-title" style="pointer-events: none;"><text text-anchor="middle" transform="translate(70,-12)" style="font-family: Helvetica Neue; font-size: 10px; fill: #000; opacity: 1;">Waseca</text></g></g></g></g><g class="mark-group role-scope cell"><g transform="translate(0,0)"><path class="background" d="M0.5,0.5h140v140h-140Z" style="fill: none; stroke: #ddd; stroke-width: 0;"></path><g><g class="mark-group role-scope child_layer_0_pathgroup"><g transform="translate(0,0)"><path class="background" d="M0,0h140v140h-140Z" style="fill: none;"></path><g><g class="mark-line role-mark child_layer_0_marks"><path d="M7,74.35556333333332L21,70.15556333333335L35,56.77776999999999L49,50.01112666666667L63,60.43333333333334L77,66.26666666666665L91,68.91110333333333L105,53.822230000000005L119,66.88889666666667L133,46.97777000000001" style="fill: none; stroke: #4c78a8; stroke-width: 2;"></path></g></g></g><g transform="translate(0,0)"><path class="background" d="M0,0h140v140h-140Z" style="fill: none;"></path><g><g class="mark-line role-mark child_layer_0_marks"><path d="M7,102.27777L21,86.41110333333333L35,83.22223L49,92.08889666666667L63,88.35556333333334L77,104.45556333333334L91,115.18889666666666L105,65.72223000000001L119,88.51112666666667L133,79.56666666666666" style="fill: none; stroke: #f58518; stroke-width: 2;"></path></g></g></g></g><g class="mark-symbol role-mark child_layer_1_marks"><path transform="translate(21,70.15556333333335)" d="M2.7386127875258306,0A2.7386127875258306,2.7386127875258306,0,1,1,-2.7386127875258306,0A2.7386127875258306,2.7386127875258306,0,1,1,2.7386127875258306,0" style="fill: #4c78a8; stroke-width: 2;"></path><path transform="translate(7,74.35556333333332)" d="M2.7386127875258306,0A2.7386127875258306,2.7386127875258306,0,1,1,-2.7386127875258306,0A2.7386127875258306,2.7386127875258306,0,1,1,2.7386127875258306,0" style="fill: #4c78a8; stroke-width: 2;"></path><path transform="translate(91,68.91110333333333)" d="M2.7386127875258306,0A2.7386127875258306,2.7386127875258306,0,1,1,-2.7386127875258306,0A2.7386127875258306,2.7386127875258306,0,1,1,2.7386127875258306,0" style="fill: #4c78a8; stroke-width: 2;"></path><path transform="translate(119,66.88889666666667)" d="M2.7386127875258306,0A2.7386127875258306,2.7386127875258306,0,1,1,-2.7386127875258306,0A2.7386127875258306,2.7386127875258306,0,1,1,2.7386127875258306,0" style="fill: #4c78a8; stroke-width: 2;"></path><path transform="translate(105,53.822230000000005)" d="M2.7386127875258306,0A2.7386127875258306,2.7386127875258306,0,1,1,-2.7386127875258306,0A2.7386127875258306,2.7386127875258306,0,1,1,2.7386127875258306,0" style="fill: #4c78a8; stroke-width: 2;"></path><path transform="translate(35,56.77776999999999)" d="M2.7386127875258306,0A2.7386127875258306,2.7386127875258306,0,1,1,-2.7386127875258306,0A2.7386127875258306,2.7386127875258306,0,1,1,2.7386127875258306,0" style="fill: #4c78a8; stroke-width: 2;"></path><path transform="translate(49,50.01112666666667)" d="M2.7386127875258306,0A2.7386127875258306,2.7386127875258306,0,1,1,-2.7386127875258306,0A2.7386127875258306,2.7386127875258306,0,1,1,2.7386127875258306,0" style="fill: #4c78a8; stroke-width: 2;"></path><path transform="translate(77,66.26666666666665)" d="M2.7386127875258306,0A2.7386127875258306,2.7386127875258306,0,1,1,-2.7386127875258306,0A2.7386127875258306,2.7386127875258306,0,1,1,2.7386127875258306,0" style="fill: #4c78a8; stroke-width: 2;"></path><path transform="translate(63,60.43333333333334)" d="M2.7386127875258306,0A2.7386127875258306,2.7386127875258306,0,1,1,-2.7386127875258306,0A2.7386127875258306,2.7386127875258306,0,1,1,2.7386127875258306,0" style="fill: #4c78a8; stroke-width: 2;"></path><path transform="translate(133,46.97777000000001)" d="M2.7386127875258306,0A2.7386127875258306,2.7386127875258306,0,1,1,-2.7386127875258306,0A2.7386127875258306,2.7386127875258306,0,1,1,2.7386127875258306,0" style="fill: #4c78a8; stroke-width: 2;"></path><path transform="translate(21,86.41110333333333)" d="M2.7386127875258306,0A2.7386127875258306,2.7386127875258306,0,1,1,-2.7386127875258306,0A2.7386127875258306,2.7386127875258306,0,1,1,2.7386127875258306,0" style="fill: #f58518; stroke-width: 2;"></path><path transform="translate(7,102.27777)" d="M2.7386127875258306,0A2.7386127875258306,2.7386127875258306,0,1,1,-2.7386127875258306,0A2.7386127875258306,2.7386127875258306,0,1,1,2.7386127875258306,0" style="fill: #f58518; stroke-width: 2;"></path><path transform="translate(91,115.18889666666666)" d="M2.7386127875258306,0A2.7386127875258306,2.7386127875258306,0,1,1,-2.7386127875258306,0A2.7386127875258306,2.7386127875258306,0,1,1,2.7386127875258306,0" style="fill: #f58518; stroke-width: 2;"></path><path transform="translate(119,88.51112666666667)" d="M2.7386127875258306,0A2.7386127875258306,2.7386127875258306,0,1,1,-2.7386127875258306,0A2.7386127875258306,2.7386127875258306,0,1,1,2.7386127875258306,0" style="fill: #f58518; stroke-width: 2;"></path><path transform="translate(105,65.72223000000001)" d="M2.7386127875258306,0A2.7386127875258306,2.7386127875258306,0,1,1,-2.7386127875258306,0A2.7386127875258306,2.7386127875258306,0,1,1,2.7386127875258306,0" style="fill: #f58518; stroke-width: 2;"></path><path transform="translate(35,83.22223)" d="M2.7386127875258306,0A2.7386127875258306,2.7386127875258306,0,1,1,-2.7386127875258306,0A2.7386127875258306,2.7386127875258306,0,1,1,2.7386127875258306,0" style="fill: #f58518; stroke-width: 2;"></path><path transform="translate(49,92.08889666666667)" d="M2.7386127875258306,0A2.7386127875258306,2.7386127875258306,0,1,1,-2.7386127875258306,0A2.7386127875258306,2.7386127875258306,0,1,1,2.7386127875258306,0" style="fill: #f58518; stroke-width: 2;"></path><path transform="translate(77,104.45556333333334)" d="M2.7386127875258306,0A2.7386127875258306,2.7386127875258306,0,1,1,-2.7386127875258306,0A2.7386127875258306,2.7386127875258306,0,1,1,2.7386127875258306,0" style="fill: #f58518; stroke-width: 2;"></path><path transform="translate(63,88.35556333333334)" d="M2.7386127875258306,0A2.7386127875258306,2.7386127875258306,0,1,1,-2.7386127875258306,0A2.7386127875258306,2.7386127875258306,0,1,1,2.7386127875258306,0" style="fill: #f58518; stroke-width: 2;"></path><path transform="translate(133,79.56666666666666)" d="M2.7386127875258306,0A2.7386127875258306,2.7386127875258306,0,1,1,-2.7386127875258306,0A2.7386127875258306,2.7386127875258306,0,1,1,2.7386127875258306,0" style="fill: #f58518; stroke-width: 2;"></path></g><g class="mark-group role-axis"><g transform="translate(0.5,140.5)"><path class="background" d="M0,0h0v0h0Z" style="pointer-events: none; fill: none;"></path><g><g class="mark-rule role-axis-tick" style="pointer-events: none;"><line transform="translate(7,0)" x2="0" y2="5" style="fill: none; stroke: #888; stroke-width: 1; opacity: 1;"></line><line transform="translate(21,0)" x2="0" y2="5" style="fill: none; stroke: #888; stroke-width: 1; opacity: 1;"></line><line transform="translate(35,0)" x2="0" y2="5" style="fill: none; stroke: #888; stroke-width: 1; opacity: 1;"></line><line transform="translate(49,0)" x2="0" y2="5" style="fill: none; stroke: #888; stroke-width: 1; opacity: 1;"></line><line transform="translate(63,0)" x2="0" y2="5" style="fill: none; stroke: #888; stroke-width: 1; opacity: 1;"></line><line transform="translate(77,0)" x2="0" y2="5" style="fill: none; stroke: #888; stroke-width: 1; opacity: 1;"></line><line transform="translate(91,0)" x2="0" y2="5" style="fill: none; stroke: #888; stroke-width: 1; opacity: 1;"></line><line transform="translate(105,0)" x2="0" y2="5" style="fill: none; stroke: #888; stroke-width: 1; opacity: 1;"></line><line transform="translate(119,0)" x2="0" y2="5" style="fill: none; stroke: #888; stroke-width: 1; opacity: 1;"></line><line transform="translate(133,0)" x2="0" y2="5" style="fill: none; stroke: #888; stroke-width: 1; opacity: 1;"></line></g><g class="mark-text role-axis-label" style="pointer-events: none;"><text text-anchor="end" transform="translate(7,7) rotate(270) translate(0,3)" style="font-family: Helvetica Neue; font-size: 10px; font-weight: normal; fill: #000; opacity: 1;">Glabron</text><text text-anchor="end" transform="translate(21,7) rotate(270) translate(0,3)" style="font-family: Helvetica Neue; font-size: 10px; font-weight: normal; fill: #000; opacity: 1;">Manchuria</text><text text-anchor="end" transform="translate(35,7) rotate(270) translate(0,3)" style="font-family: Helvetica Neue; font-size: 10px; font-weight: normal; fill: #000; opacity: 1;">No. 457</text><text text-anchor="end" transform="translate(49,7) rotate(270) translate(0,3)" style="font-family: Helvetica Neue; font-size: 10px; font-weight: normal; fill: #000; opacity: 1;">No. 462</text><text text-anchor="end" transform="translate(63,7) rotate(270) translate(0,3)" style="font-family: Helvetica Neue; font-size: 10px; font-weight: normal; fill: #000; opacity: 1;">No. 475</text><text text-anchor="end" transform="translate(77,7) rotate(270) translate(0,3)" style="font-family: Helvetica Neue; font-size: 10px; font-weight: normal; fill: #000; opacity: 1;">Peatland</text><text text-anchor="end" transform="translate(91,7) rotate(270) translate(0,3)" style="font-family: Helvetica Neue; font-size: 10px; font-weight: normal; fill: #000; opacity: 1;">Svansota</text><text text-anchor="end" transform="translate(105,7) rotate(270) translate(0,3)" style="font-family: Helvetica Neue; font-size: 10px; font-weight: normal; fill: #000; opacity: 1;">Trebi</text><text text-anchor="end" transform="translate(119,7) rotate(270) translate(0,3)" style="font-family: Helvetica Neue; font-size: 10px; font-weight: normal; fill: #000; opacity: 1;">Velvet</text><text text-anchor="end" transform="translate(133,7) rotate(270) translate(0,3)" style="font-family: Helvetica Neue; font-size: 10px; font-weight: normal; fill: #000; opacity: 1;">Wisconsin No. 38</text></g><g class="mark-rule role-axis-domain" style="pointer-events: none;"><line transform="translate(0,0)" x2="140" y2="0" style="fill: none; stroke: #888; stroke-width: 1; opacity: 1;"></line></g></g></g></g></g></g><g transform="translate(145,0)"><path class="background" d="M0.5,0.5h140v140h-140Z" style="fill: none; stroke: #ddd; stroke-width: 0;"></path><g><g class="mark-group role-scope child_layer_0_pathgroup"><g transform="translate(0,0)"><path class="background" d="M0,0h140v140h-140Z" style="fill: none;"></path><g><g class="mark-line role-mark child_layer_0_marks"><path d="M7,94.11110333333333L21,95.74443666666667L35,84.93333333333334L49,97.76666666666667L63,86.17779333333334L77,88.66666666666667L91,103.36666666666667L105,84.15556333333333L119,101.96666666666667L133,89.6" style="fill: none; stroke: #4c78a8; stroke-width: 2;"></path></g></g></g><g transform="translate(0,0)"><path class="background" d="M0,0h140v140h-140Z" style="fill: none;"></path><g><g class="mark-line role-mark child_layer_0_marks"><path d="M7,102.97777L21,110.67777000000001L35,110.36666666666667L49,110.83333333333333L63,99.47776999999999L77,90.14443666666668L91,111.45556333333333L105,91.93333333333334L119,110.91110333333333L133,94.88889666666667" style="fill: none; stroke: #f58518; stroke-width: 2;"></path></g></g></g></g><g class="mark-symbol role-mark child_layer_1_marks"><path transform="translate(21,95.74443666666667)" d="M2.7386127875258306,0A2.7386127875258306,2.7386127875258306,0,1,1,-2.7386127875258306,0A2.7386127875258306,2.7386127875258306,0,1,1,2.7386127875258306,0" style="fill: #4c78a8; stroke-width: 2;"></path><path transform="translate(7,94.11110333333333)" d="M2.7386127875258306,0A2.7386127875258306,2.7386127875258306,0,1,1,-2.7386127875258306,0A2.7386127875258306,2.7386127875258306,0,1,1,2.7386127875258306,0" style="fill: #4c78a8; stroke-width: 2;"></path><path transform="translate(91,103.36666666666667)" d="M2.7386127875258306,0A2.7386127875258306,2.7386127875258306,0,1,1,-2.7386127875258306,0A2.7386127875258306,2.7386127875258306,0,1,1,2.7386127875258306,0" style="fill: #4c78a8; stroke-width: 2;"></path><path transform="translate(119,101.96666666666667)" d="M2.7386127875258306,0A2.7386127875258306,2.7386127875258306,0,1,1,-2.7386127875258306,0A2.7386127875258306,2.7386127875258306,0,1,1,2.7386127875258306,0" style="fill: #4c78a8; stroke-width: 2;"></path><path transform="translate(105,84.15556333333333)" d="M2.7386127875258306,0A2.7386127875258306,2.7386127875258306,0,1,1,-2.7386127875258306,0A2.7386127875258306,2.7386127875258306,0,1,1,2.7386127875258306,0" style="fill: #4c78a8; stroke-width: 2;"></path><path transform="translate(35,84.93333333333334)" d="M2.7386127875258306,0A2.7386127875258306,2.7386127875258306,0,1,1,-2.7386127875258306,0A2.7386127875258306,2.7386127875258306,0,1,1,2.7386127875258306,0" style="fill: #4c78a8; stroke-width: 2;"></path><path transform="translate(49,97.76666666666667)" d="M2.7386127875258306,0A2.7386127875258306,2.7386127875258306,0,1,1,-2.7386127875258306,0A2.7386127875258306,2.7386127875258306,0,1,1,2.7386127875258306,0" style="fill: #4c78a8; stroke-width: 2;"></path><path transform="translate(77,88.66666666666667)" d="M2.7386127875258306,0A2.7386127875258306,2.7386127875258306,0,1,1,-2.7386127875258306,0A2.7386127875258306,2.7386127875258306,0,1,1,2.7386127875258306,0" style="fill: #4c78a8; stroke-width: 2;"></path><path transform="translate(63,86.17779333333334)" d="M2.7386127875258306,0A2.7386127875258306,2.7386127875258306,0,1,1,-2.7386127875258306,0A2.7386127875258306,2.7386127875258306,0,1,1,2.7386127875258306,0" style="fill: #4c78a8; stroke-width: 2;"></path><path transform="translate(133,89.6)" d="M2.7386127875258306,0A2.7386127875258306,2.7386127875258306,0,1,1,-2.7386127875258306,0A2.7386127875258306,2.7386127875258306,0,1,1,2.7386127875258306,0" style="fill: #4c78a8; stroke-width: 2;"></path><path transform="translate(21,110.67777000000001)" d="M2.7386127875258306,0A2.7386127875258306,2.7386127875258306,0,1,1,-2.7386127875258306,0A2.7386127875258306,2.7386127875258306,0,1,1,2.7386127875258306,0" style="fill: #f58518; stroke-width: 2;"></path><path transform="translate(7,102.97777)" d="M2.7386127875258306,0A2.7386127875258306,2.7386127875258306,0,1,1,-2.7386127875258306,0A2.7386127875258306,2.7386127875258306,0,1,1,2.7386127875258306,0" style="fill: #f58518; stroke-width: 2;"></path><path transform="translate(91,111.45556333333333)" d="M2.7386127875258306,0A2.7386127875258306,2.7386127875258306,0,1,1,-2.7386127875258306,0A2.7386127875258306,2.7386127875258306,0,1,1,2.7386127875258306,0" style="fill: #f58518; stroke-width: 2;"></path><path transform="translate(119,110.91110333333333)" d="M2.7386127875258306,0A2.7386127875258306,2.7386127875258306,0,1,1,-2.7386127875258306,0A2.7386127875258306,2.7386127875258306,0,1,1,2.7386127875258306,0" style="fill: #f58518; stroke-width: 2;"></path><path transform="translate(105,91.93333333333334)" d="M2.7386127875258306,0A2.7386127875258306,2.7386127875258306,0,1,1,-2.7386127875258306,0A2.7386127875258306,2.7386127875258306,0,1,1,2.7386127875258306,0" style="fill: #f58518; stroke-width: 2;"></path><path transform="translate(35,110.36666666666667)" d="M2.7386127875258306,0A2.7386127875258306,2.7386127875258306,0,1,1,-2.7386127875258306,0A2.7386127875258306,2.7386127875258306,0,1,1,2.7386127875258306,0" style="fill: #f58518; stroke-width: 2;"></path><path transform="translate(49,110.83333333333333)" d="M2.7386127875258306,0A2.7386127875258306,2.7386127875258306,0,1,1,-2.7386127875258306,0A2.7386127875258306,2.7386127875258306,0,1,1,2.7386127875258306,0" style="fill: #f58518; stroke-width: 2;"></path><path transform="translate(77,90.14443666666668)" d="M2.7386127875258306,0A2.7386127875258306,2.7386127875258306,0,1,1,-2.7386127875258306,0A2.7386127875258306,2.7386127875258306,0,1,1,2.7386127875258306,0" style="fill: #f58518; stroke-width: 2;"></path><path transform="translate(63,99.47776999999999)" d="M2.7386127875258306,0A2.7386127875258306,2.7386127875258306,0,1,1,-2.7386127875258306,0A2.7386127875258306,2.7386127875258306,0,1,1,2.7386127875258306,0" style="fill: #f58518; stroke-width: 2;"></path><path transform="translate(133,94.88889666666667)" d="M2.7386127875258306,0A2.7386127875258306,2.7386127875258306,0,1,1,-2.7386127875258306,0A2.7386127875258306,2.7386127875258306,0,1,1,2.7386127875258306,0" style="fill: #f58518; stroke-width: 2;"></path></g><g class="mark-group role-axis"><g transform="translate(0.5,140.5)"><path class="background" d="M0,0h0v0h0Z" style="pointer-events: none; fill: none;"></path><g><g class="mark-rule role-axis-tick" style="pointer-events: none;"><line transform="translate(7,0)" x2="0" y2="5" style="fill: none; stroke: #888; stroke-width: 1; opacity: 1;"></line><line transform="translate(21,0)" x2="0" y2="5" style="fill: none; stroke: #888; stroke-width: 1; opacity: 1;"></line><line transform="translate(35,0)" x2="0" y2="5" style="fill: none; stroke: #888; stroke-width: 1; opacity: 1;"></line><line transform="translate(49,0)" x2="0" y2="5" style="fill: none; stroke: #888; stroke-width: 1; opacity: 1;"></line><line transform="translate(63,0)" x2="0" y2="5" style="fill: none; stroke: #888; stroke-width: 1; opacity: 1;"></line><line transform="translate(77,0)" x2="0" y2="5" style="fill: none; stroke: #888; stroke-width: 1; opacity: 1;"></line><line transform="translate(91,0)" x2="0" y2="5" style="fill: none; stroke: #888; stroke-width: 1; opacity: 1;"></line><line transform="translate(105,0)" x2="0" y2="5" style="fill: none; stroke: #888; stroke-width: 1; opacity: 1;"></line><line transform="translate(119,0)" x2="0" y2="5" style="fill: none; stroke: #888; stroke-width: 1; opacity: 1;"></line><line transform="translate(133,0)" x2="0" y2="5" style="fill: none; stroke: #888; stroke-width: 1; opacity: 1;"></line></g><g class="mark-text role-axis-label" style="pointer-events: none;"><text text-anchor="end" transform="translate(7,7) rotate(270) translate(0,3)" style="font-family: Helvetica Neue; font-size: 10px; font-weight: normal; fill: #000; opacity: 1;">Glabron</text><text text-anchor="end" transform="translate(21,7) rotate(270) translate(0,3)" style="font-family: Helvetica Neue; font-size: 10px; font-weight: normal; fill: #000; opacity: 1;">Manchuria</text><text text-anchor="end" transform="translate(35,7) rotate(270) translate(0,3)" style="font-family: Helvetica Neue; font-size: 10px; font-weight: normal; fill: #000; opacity: 1;">No. 457</text><text text-anchor="end" transform="translate(49,7) rotate(270) translate(0,3)" style="font-family: Helvetica Neue; font-size: 10px; font-weight: normal; fill: #000; opacity: 1;">No. 462</text><text text-anchor="end" transform="translate(63,7) rotate(270) translate(0,3)" style="font-family: Helvetica Neue; font-size: 10px; font-weight: normal; fill: #000; opacity: 1;">No. 475</text><text text-anchor="end" transform="translate(77,7) rotate(270) translate(0,3)" style="font-family: Helvetica Neue; font-size: 10px; font-weight: normal; fill: #000; opacity: 1;">Peatland</text><text text-anchor="end" transform="translate(91,7) rotate(270) translate(0,3)" style="font-family: Helvetica Neue; font-size: 10px; font-weight: normal; fill: #000; opacity: 1;">Svansota</text><text text-anchor="end" transform="translate(105,7) rotate(270) translate(0,3)" style="font-family: Helvetica Neue; font-size: 10px; font-weight: normal; fill: #000; opacity: 1;">Trebi</text><text text-anchor="end" transform="translate(119,7) rotate(270) translate(0,3)" style="font-family: Helvetica Neue; font-size: 10px; font-weight: normal; fill: #000; opacity: 1;">Velvet</text><text text-anchor="end" transform="translate(133,7) rotate(270) translate(0,3)" style="font-family: Helvetica Neue; font-size: 10px; font-weight: normal; fill: #000; opacity: 1;">Wisconsin No. 38</text></g><g class="mark-rule role-axis-domain" style="pointer-events: none;"><line transform="translate(0,0)" x2="140" y2="0" style="fill: none; stroke: #888; stroke-width: 1; opacity: 1;"></line></g></g></g></g></g></g><g transform="translate(290,0)"><path class="background" d="M0.5,0.5h140v140h-140Z" style="fill: none; stroke: #ddd; stroke-width: 0;"></path><g><g class="mark-group role-scope child_layer_0_pathgroup"><g transform="translate(0,0)"><path class="background" d="M0,0h140v140h-140Z" style="fill: none;"></path><g><g class="mark-line role-mark child_layer_0_marks"><path d="M7,95.35556333333332L21,86.41110333333333L35,88.27776999999999L49,105.15554L63,117.36666666666667L77,82.36666666666666L91,94.11110333333333L105,93.87777L119,109.58889666666667L133,82.91110333333333" style="fill: none; stroke: #4c78a8; stroke-width: 2;"></path></g></g></g><g transform="translate(0,0)"><path class="background" d="M0,0h140v140h-140Z" style="fill: none;"></path><g><g class="mark-line role-mark child_layer_0_marks"><path d="M7,129.65556333333333L21,111.68889666666666L35,117.91110333333333L49,116.9L63,127.78889666666666L77,100.87777L91,124.52223L105,115.18889666666666L119,88.12223L133,115.11110333333333" style="fill: none; stroke: #f58518; stroke-width: 2;"></path></g></g></g></g><g class="mark-symbol role-mark child_layer_1_marks"><path transform="translate(21,86.41110333333333)" d="M2.7386127875258306,0A2.7386127875258306,2.7386127875258306,0,1,1,-2.7386127875258306,0A2.7386127875258306,2.7386127875258306,0,1,1,2.7386127875258306,0" style="fill: #4c78a8; stroke-width: 2;"></path><path transform="translate(7,95.35556333333332)" d="M2.7386127875258306,0A2.7386127875258306,2.7386127875258306,0,1,1,-2.7386127875258306,0A2.7386127875258306,2.7386127875258306,0,1,1,2.7386127875258306,0" style="fill: #4c78a8; stroke-width: 2;"></path><path transform="translate(91,94.11110333333333)" d="M2.7386127875258306,0A2.7386127875258306,2.7386127875258306,0,1,1,-2.7386127875258306,0A2.7386127875258306,2.7386127875258306,0,1,1,2.7386127875258306,0" style="fill: #4c78a8; stroke-width: 2;"></path><path transform="translate(119,109.58889666666667)" d="M2.7386127875258306,0A2.7386127875258306,2.7386127875258306,0,1,1,-2.7386127875258306,0A2.7386127875258306,2.7386127875258306,0,1,1,2.7386127875258306,0" style="fill: #4c78a8; stroke-width: 2;"></path><path transform="translate(105,93.87777)" d="M2.7386127875258306,0A2.7386127875258306,2.7386127875258306,0,1,1,-2.7386127875258306,0A2.7386127875258306,2.7386127875258306,0,1,1,2.7386127875258306,0" style="fill: #4c78a8; stroke-width: 2;"></path><path transform="translate(35,88.27776999999999)" d="M2.7386127875258306,0A2.7386127875258306,2.7386127875258306,0,1,1,-2.7386127875258306,0A2.7386127875258306,2.7386127875258306,0,1,1,2.7386127875258306,0" style="fill: #4c78a8; stroke-width: 2;"></path><path transform="translate(49,105.15554)" d="M2.7386127875258306,0A2.7386127875258306,2.7386127875258306,0,1,1,-2.7386127875258306,0A2.7386127875258306,2.7386127875258306,0,1,1,2.7386127875258306,0" style="fill: #4c78a8; stroke-width: 2;"></path><path transform="translate(77,82.36666666666666)" d="M2.7386127875258306,0A2.7386127875258306,2.7386127875258306,0,1,1,-2.7386127875258306,0A2.7386127875258306,2.7386127875258306,0,1,1,2.7386127875258306,0" style="fill: #4c78a8; stroke-width: 2;"></path><path transform="translate(63,117.36666666666667)" d="M2.7386127875258306,0A2.7386127875258306,2.7386127875258306,0,1,1,-2.7386127875258306,0A2.7386127875258306,2.7386127875258306,0,1,1,2.7386127875258306,0" style="fill: #4c78a8; stroke-width: 2;"></path><path transform="translate(133,82.91110333333333)" d="M2.7386127875258306,0A2.7386127875258306,2.7386127875258306,0,1,1,-2.7386127875258306,0A2.7386127875258306,2.7386127875258306,0,1,1,2.7386127875258306,0" style="fill: #4c78a8; stroke-width: 2;"></path><path transform="translate(21,111.68889666666666)" d="M2.7386127875258306,0A2.7386127875258306,2.7386127875258306,0,1,1,-2.7386127875258306,0A2.7386127875258306,2.7386127875258306,0,1,1,2.7386127875258306,0" style="fill: #f58518; stroke-width: 2;"></path><path transform="translate(7,129.65556333333333)" d="M2.7386127875258306,0A2.7386127875258306,2.7386127875258306,0,1,1,-2.7386127875258306,0A2.7386127875258306,2.7386127875258306,0,1,1,2.7386127875258306,0" style="fill: #f58518; stroke-width: 2;"></path><path transform="translate(91,124.52223)" d="M2.7386127875258306,0A2.7386127875258306,2.7386127875258306,0,1,1,-2.7386127875258306,0A2.7386127875258306,2.7386127875258306,0,1,1,2.7386127875258306,0" style="fill: #f58518; stroke-width: 2;"></path><path transform="translate(119,88.12223)" d="M2.7386127875258306,0A2.7386127875258306,2.7386127875258306,0,1,1,-2.7386127875258306,0A2.7386127875258306,2.7386127875258306,0,1,1,2.7386127875258306,0" style="fill: #f58518; stroke-width: 2;"></path><path transform="translate(105,115.18889666666666)" d="M2.7386127875258306,0A2.7386127875258306,2.7386127875258306,0,1,1,-2.7386127875258306,0A2.7386127875258306,2.7386127875258306,0,1,1,2.7386127875258306,0" style="fill: #f58518; stroke-width: 2;"></path><path transform="translate(35,117.91110333333333)" d="M2.7386127875258306,0A2.7386127875258306,2.7386127875258306,0,1,1,-2.7386127875258306,0A2.7386127875258306,2.7386127875258306,0,1,1,2.7386127875258306,0" style="fill: #f58518; stroke-width: 2;"></path><path transform="translate(49,116.9)" d="M2.7386127875258306,0A2.7386127875258306,2.7386127875258306,0,1,1,-2.7386127875258306,0A2.7386127875258306,2.7386127875258306,0,1,1,2.7386127875258306,0" style="fill: #f58518; stroke-width: 2;"></path><path transform="translate(77,100.87777)" d="M2.7386127875258306,0A2.7386127875258306,2.7386127875258306,0,1,1,-2.7386127875258306,0A2.7386127875258306,2.7386127875258306,0,1,1,2.7386127875258306,0" style="fill: #f58518; stroke-width: 2;"></path><path transform="translate(63,127.78889666666666)" d="M2.7386127875258306,0A2.7386127875258306,2.7386127875258306,0,1,1,-2.7386127875258306,0A2.7386127875258306,2.7386127875258306,0,1,1,2.7386127875258306,0" style="fill: #f58518; stroke-width: 2;"></path><path transform="translate(133,115.11110333333333)" d="M2.7386127875258306,0A2.7386127875258306,2.7386127875258306,0,1,1,-2.7386127875258306,0A2.7386127875258306,2.7386127875258306,0,1,1,2.7386127875258306,0" style="fill: #f58518; stroke-width: 2;"></path></g><g class="mark-group role-axis"><g transform="translate(0.5,140.5)"><path class="background" d="M0,0h0v0h0Z" style="pointer-events: none; fill: none;"></path><g><g class="mark-rule role-axis-tick" style="pointer-events: none;"><line transform="translate(7,0)" x2="0" y2="5" style="fill: none; stroke: #888; stroke-width: 1; opacity: 1;"></line><line transform="translate(21,0)" x2="0" y2="5" style="fill: none; stroke: #888; stroke-width: 1; opacity: 1;"></line><line transform="translate(35,0)" x2="0" y2="5" style="fill: none; stroke: #888; stroke-width: 1; opacity: 1;"></line><line transform="translate(49,0)" x2="0" y2="5" style="fill: none; stroke: #888; stroke-width: 1; opacity: 1;"></line><line transform="translate(63,0)" x2="0" y2="5" style="fill: none; stroke: #888; stroke-width: 1; opacity: 1;"></line><line transform="translate(77,0)" x2="0" y2="5" style="fill: none; stroke: #888; stroke-width: 1; opacity: 1;"></line><line transform="translate(91,0)" x2="0" y2="5" style="fill: none; stroke: #888; stroke-width: 1; opacity: 1;"></line><line transform="translate(105,0)" x2="0" y2="5" style="fill: none; stroke: #888; stroke-width: 1; opacity: 1;"></line><line transform="translate(119,0)" x2="0" y2="5" style="fill: none; stroke: #888; stroke-width: 1; opacity: 1;"></line><line transform="translate(133,0)" x2="0" y2="5" style="fill: none; stroke: #888; stroke-width: 1; opacity: 1;"></line></g><g class="mark-text role-axis-label" style="pointer-events: none;"><text text-anchor="end" transform="translate(7,7) rotate(270) translate(0,3)" style="font-family: Helvetica Neue; font-size: 10px; font-weight: normal; fill: #000; opacity: 1;">Glabron</text><text text-anchor="end" transform="translate(21,7) rotate(270) translate(0,3)" style="font-family: Helvetica Neue; font-size: 10px; font-weight: normal; fill: #000; opacity: 1;">Manchuria</text><text text-anchor="end" transform="translate(35,7) rotate(270) translate(0,3)" style="font-family: Helvetica Neue; font-size: 10px; font-weight: normal; fill: #000; opacity: 1;">No. 457</text><text text-anchor="end" transform="translate(49,7) rotate(270) translate(0,3)" style="font-family: Helvetica Neue; font-size: 10px; font-weight: normal; fill: #000; opacity: 1;">No. 462</text><text text-anchor="end" transform="translate(63,7) rotate(270) translate(0,3)" style="font-family: Helvetica Neue; font-size: 10px; font-weight: normal; fill: #000; opacity: 1;">No. 475</text><text text-anchor="end" transform="translate(77,7) rotate(270) translate(0,3)" style="font-family: Helvetica Neue; font-size: 10px; font-weight: normal; fill: #000; opacity: 1;">Peatland</text><text text-anchor="end" transform="translate(91,7) rotate(270) translate(0,3)" style="font-family: Helvetica Neue; font-size: 10px; font-weight: normal; fill: #000; opacity: 1;">Svansota</text><text text-anchor="end" transform="translate(105,7) rotate(270) translate(0,3)" style="font-family: Helvetica Neue; font-size: 10px; font-weight: normal; fill: #000; opacity: 1;">Trebi</text><text text-anchor="end" transform="translate(119,7) rotate(270) translate(0,3)" style="font-family: Helvetica Neue; font-size: 10px; font-weight: normal; fill: #000; opacity: 1;">Velvet</text><text text-anchor="end" transform="translate(133,7) rotate(270) translate(0,3)" style="font-family: Helvetica Neue; font-size: 10px; font-weight: normal; fill: #000; opacity: 1;">Wisconsin No. 38</text></g><g class="mark-rule role-axis-domain" style="pointer-events: none;"><line transform="translate(0,0)" x2="140" y2="0" style="fill: none; stroke: #888; stroke-width: 1; opacity: 1;"></line></g></g></g></g></g></g><g transform="translate(435,0)"><path class="background" d="M0.5,0.5h140v140h-140Z" style="fill: none; stroke: #ddd; stroke-width: 0;"></path><g><g class="mark-group role-scope child_layer_0_pathgroup"><g transform="translate(0,0)"><path class="background" d="M0,0h140v140h-140Z" style="fill: none;"></path><g><g class="mark-line role-mark child_layer_0_marks"><path d="M7,96.21110333333333L21,99.32220666666666L35,96.36666666666667L49,92.47776999999999L63,110.6L77,93.64443666666666L91,103.21110333333333L105,61.21110333333334L119,102.35556333333332L133,94.57776999999999" style="fill: none; stroke: #4c78a8; stroke-width: 2;"></path></g></g></g><g transform="translate(0,0)"><path class="background" d="M0,0h140v140h-140Z" style="fill: none;"></path><g><g class="mark-line role-mark child_layer_0_marks"><path d="M7,81.35556333333334L21,83.14446L35,61.75553999999998L49,53.66666666666666L63,60.12223L77,62.53333333333333L91,81.58889666666667L105,54.52222999999999L119,72.72223000000001L133,53.27776999999999" style="fill: none; stroke: #f58518; stroke-width: 2;"></path></g></g></g></g><g class="mark-symbol role-mark child_layer_1_marks"><path transform="translate(21,99.32220666666666)" d="M2.7386127875258306,0A2.7386127875258306,2.7386127875258306,0,1,1,-2.7386127875258306,0A2.7386127875258306,2.7386127875258306,0,1,1,2.7386127875258306,0" style="fill: #4c78a8; stroke-width: 2;"></path><path transform="translate(7,96.21110333333333)" d="M2.7386127875258306,0A2.7386127875258306,2.7386127875258306,0,1,1,-2.7386127875258306,0A2.7386127875258306,2.7386127875258306,0,1,1,2.7386127875258306,0" style="fill: #4c78a8; stroke-width: 2;"></path><path transform="translate(91,103.21110333333333)" d="M2.7386127875258306,0A2.7386127875258306,2.7386127875258306,0,1,1,-2.7386127875258306,0A2.7386127875258306,2.7386127875258306,0,1,1,2.7386127875258306,0" style="fill: #4c78a8; stroke-width: 2;"></path><path transform="translate(119,102.35556333333332)" d="M2.7386127875258306,0A2.7386127875258306,2.7386127875258306,0,1,1,-2.7386127875258306,0A2.7386127875258306,2.7386127875258306,0,1,1,2.7386127875258306,0" style="fill: #4c78a8; stroke-width: 2;"></path><path transform="translate(105,61.21110333333334)" d="M2.7386127875258306,0A2.7386127875258306,2.7386127875258306,0,1,1,-2.7386127875258306,0A2.7386127875258306,2.7386127875258306,0,1,1,2.7386127875258306,0" style="fill: #4c78a8; stroke-width: 2;"></path><path transform="translate(35,96.36666666666667)" d="M2.7386127875258306,0A2.7386127875258306,2.7386127875258306,0,1,1,-2.7386127875258306,0A2.7386127875258306,2.7386127875258306,0,1,1,2.7386127875258306,0" style="fill: #4c78a8; stroke-width: 2;"></path><path transform="translate(49,92.47776999999999)" d="M2.7386127875258306,0A2.7386127875258306,2.7386127875258306,0,1,1,-2.7386127875258306,0A2.7386127875258306,2.7386127875258306,0,1,1,2.7386127875258306,0" style="fill: #4c78a8; stroke-width: 2;"></path><path transform="translate(77,93.64443666666666)" d="M2.7386127875258306,0A2.7386127875258306,2.7386127875258306,0,1,1,-2.7386127875258306,0A2.7386127875258306,2.7386127875258306,0,1,1,2.7386127875258306,0" style="fill: #4c78a8; stroke-width: 2;"></path><path transform="translate(63,110.6)" d="M2.7386127875258306,0A2.7386127875258306,2.7386127875258306,0,1,1,-2.7386127875258306,0A2.7386127875258306,2.7386127875258306,0,1,1,2.7386127875258306,0" style="fill: #4c78a8; stroke-width: 2;"></path><path transform="translate(133,94.57776999999999)" d="M2.7386127875258306,0A2.7386127875258306,2.7386127875258306,0,1,1,-2.7386127875258306,0A2.7386127875258306,2.7386127875258306,0,1,1,2.7386127875258306,0" style="fill: #4c78a8; stroke-width: 2;"></path><path transform="translate(21,83.14446)" d="M2.7386127875258306,0A2.7386127875258306,2.7386127875258306,0,1,1,-2.7386127875258306,0A2.7386127875258306,2.7386127875258306,0,1,1,2.7386127875258306,0" style="fill: #f58518; stroke-width: 2;"></path><path transform="translate(7,81.35556333333334)" d="M2.7386127875258306,0A2.7386127875258306,2.7386127875258306,0,1,1,-2.7386127875258306,0A2.7386127875258306,2.7386127875258306,0,1,1,2.7386127875258306,0" style="fill: #f58518; stroke-width: 2;"></path><path transform="translate(91,81.58889666666667)" d="M2.7386127875258306,0A2.7386127875258306,2.7386127875258306,0,1,1,-2.7386127875258306,0A2.7386127875258306,2.7386127875258306,0,1,1,2.7386127875258306,0" style="fill: #f58518; stroke-width: 2;"></path><path transform="translate(119,72.72223000000001)" d="M2.7386127875258306,0A2.7386127875258306,2.7386127875258306,0,1,1,-2.7386127875258306,0A2.7386127875258306,2.7386127875258306,0,1,1,2.7386127875258306,0" style="fill: #f58518; stroke-width: 2;"></path><path transform="translate(105,54.52222999999999)" d="M2.7386127875258306,0A2.7386127875258306,2.7386127875258306,0,1,1,-2.7386127875258306,0A2.7386127875258306,2.7386127875258306,0,1,1,2.7386127875258306,0" style="fill: #f58518; stroke-width: 2;"></path><path transform="translate(35,61.75553999999998)" d="M2.7386127875258306,0A2.7386127875258306,2.7386127875258306,0,1,1,-2.7386127875258306,0A2.7386127875258306,2.7386127875258306,0,1,1,2.7386127875258306,0" style="fill: #f58518; stroke-width: 2;"></path><path transform="translate(49,53.66666666666666)" d="M2.7386127875258306,0A2.7386127875258306,2.7386127875258306,0,1,1,-2.7386127875258306,0A2.7386127875258306,2.7386127875258306,0,1,1,2.7386127875258306,0" style="fill: #f58518; stroke-width: 2;"></path><path transform="translate(77,62.53333333333333)" d="M2.7386127875258306,0A2.7386127875258306,2.7386127875258306,0,1,1,-2.7386127875258306,0A2.7386127875258306,2.7386127875258306,0,1,1,2.7386127875258306,0" style="fill: #f58518; stroke-width: 2;"></path><path transform="translate(63,60.12223)" d="M2.7386127875258306,0A2.7386127875258306,2.7386127875258306,0,1,1,-2.7386127875258306,0A2.7386127875258306,2.7386127875258306,0,1,1,2.7386127875258306,0" style="fill: #f58518; stroke-width: 2;"></path><path transform="translate(133,53.27776999999999)" d="M2.7386127875258306,0A2.7386127875258306,2.7386127875258306,0,1,1,-2.7386127875258306,0A2.7386127875258306,2.7386127875258306,0,1,1,2.7386127875258306,0" style="fill: #f58518; stroke-width: 2;"></path></g><g class="mark-group role-axis"><g transform="translate(0.5,140.5)"><path class="background" d="M0,0h0v0h0Z" style="pointer-events: none; fill: none;"></path><g><g class="mark-rule role-axis-tick" style="pointer-events: none;"><line transform="translate(7,0)" x2="0" y2="5" style="fill: none; stroke: #888; stroke-width: 1; opacity: 1;"></line><line transform="translate(21,0)" x2="0" y2="5" style="fill: none; stroke: #888; stroke-width: 1; opacity: 1;"></line><line transform="translate(35,0)" x2="0" y2="5" style="fill: none; stroke: #888; stroke-width: 1; opacity: 1;"></line><line transform="translate(49,0)" x2="0" y2="5" style="fill: none; stroke: #888; stroke-width: 1; opacity: 1;"></line><line transform="translate(63,0)" x2="0" y2="5" style="fill: none; stroke: #888; stroke-width: 1; opacity: 1;"></line><line transform="translate(77,0)" x2="0" y2="5" style="fill: none; stroke: #888; stroke-width: 1; opacity: 1;"></line><line transform="translate(91,0)" x2="0" y2="5" style="fill: none; stroke: #888; stroke-width: 1; opacity: 1;"></line><line transform="translate(105,0)" x2="0" y2="5" style="fill: none; stroke: #888; stroke-width: 1; opacity: 1;"></line><line transform="translate(119,0)" x2="0" y2="5" style="fill: none; stroke: #888; stroke-width: 1; opacity: 1;"></line><line transform="translate(133,0)" x2="0" y2="5" style="fill: none; stroke: #888; stroke-width: 1; opacity: 1;"></line></g><g class="mark-text role-axis-label" style="pointer-events: none;"><text text-anchor="end" transform="translate(7,7) rotate(270) translate(0,3)" style="font-family: Helvetica Neue; font-size: 10px; font-weight: normal; fill: #000; opacity: 1;">Glabron</text><text text-anchor="end" transform="translate(21,7) rotate(270) translate(0,3)" style="font-family: Helvetica Neue; font-size: 10px; font-weight: normal; fill: #000; opacity: 1;">Manchuria</text><text text-anchor="end" transform="translate(35,7) rotate(270) translate(0,3)" style="font-family: Helvetica Neue; font-size: 10px; font-weight: normal; fill: #000; opacity: 1;">No. 457</text><text text-anchor="end" transform="translate(49,7) rotate(270) translate(0,3)" style="font-family: Helvetica Neue; font-size: 10px; font-weight: normal; fill: #000; opacity: 1;">No. 462</text><text text-anchor="end" transform="translate(63,7) rotate(270) translate(0,3)" style="font-family: Helvetica Neue; font-size: 10px; font-weight: normal; fill: #000; opacity: 1;">No. 475</text><text text-anchor="end" transform="translate(77,7) rotate(270) translate(0,3)" style="font-family: Helvetica Neue; font-size: 10px; font-weight: normal; fill: #000; opacity: 1;">Peatland</text><text text-anchor="end" transform="translate(91,7) rotate(270) translate(0,3)" style="font-family: Helvetica Neue; font-size: 10px; font-weight: normal; fill: #000; opacity: 1;">Svansota</text><text text-anchor="end" transform="translate(105,7) rotate(270) translate(0,3)" style="font-family: Helvetica Neue; font-size: 10px; font-weight: normal; fill: #000; opacity: 1;">Trebi</text><text text-anchor="end" transform="translate(119,7) rotate(270) translate(0,3)" style="font-family: Helvetica Neue; font-size: 10px; font-weight: normal; fill: #000; opacity: 1;">Velvet</text><text text-anchor="end" transform="translate(133,7) rotate(270) translate(0,3)" style="font-family: Helvetica Neue; font-size: 10px; font-weight: normal; fill: #000; opacity: 1;">Wisconsin No. 38</text></g><g class="mark-rule role-axis-domain" style="pointer-events: none;"><line transform="translate(0,0)" x2="140" y2="0" style="fill: none; stroke: #888; stroke-width: 1; opacity: 1;"></line></g></g></g></g></g></g><g transform="translate(580,0)"><path class="background" d="M0.5,0.5h140v140h-140Z" style="fill: none; stroke: #ddd; stroke-width: 0;"></path><g><g class="mark-group role-scope child_layer_0_pathgroup"><g transform="translate(0,0)"><path class="background" d="M0,0h140v140h-140Z" style="fill: none;"></path><g><g class="mark-line role-mark child_layer_0_marks"><path d="M7,62.84446L21,100.33333333333334L35,62.37777L49,77.93333333333334L63,105.77777L77,86.87777L91,81.35556333333334L105,78.01112666666667L119,70.23333333333333L133,71.63333333333334" style="fill: none; stroke: #4c78a8; stroke-width: 2;"></path></g></g></g><g transform="translate(0,0)"><path class="background" d="M0,0h140v140h-140Z" style="fill: none;"></path><g><g class="mark-line role-mark child_layer_0_marks"><path d="M7,77.46666666666667L21,100.56666666666666L35,101.65554L49,103.67777000000001L63,93.33333333333334L77,97.84443666666667L91,99.32220666666666L105,95.51110333333334L119,100.8L133,74.66666666666667" style="fill: none; stroke: #f58518; stroke-width: 2;"></path></g></g></g></g><g class="mark-symbol role-mark child_layer_1_marks"><path transform="translate(21,100.33333333333334)" d="M2.7386127875258306,0A2.7386127875258306,2.7386127875258306,0,1,1,-2.7386127875258306,0A2.7386127875258306,2.7386127875258306,0,1,1,2.7386127875258306,0" style="fill: #4c78a8; stroke-width: 2;"></path><path transform="translate(7,62.84446)" d="M2.7386127875258306,0A2.7386127875258306,2.7386127875258306,0,1,1,-2.7386127875258306,0A2.7386127875258306,2.7386127875258306,0,1,1,2.7386127875258306,0" style="fill: #4c78a8; stroke-width: 2;"></path><path transform="translate(91,81.35556333333334)" d="M2.7386127875258306,0A2.7386127875258306,2.7386127875258306,0,1,1,-2.7386127875258306,0A2.7386127875258306,2.7386127875258306,0,1,1,2.7386127875258306,0" style="fill: #4c78a8; stroke-width: 2;"></path><path transform="translate(119,70.23333333333333)" d="M2.7386127875258306,0A2.7386127875258306,2.7386127875258306,0,1,1,-2.7386127875258306,0A2.7386127875258306,2.7386127875258306,0,1,1,2.7386127875258306,0" style="fill: #4c78a8; stroke-width: 2;"></path><path transform="translate(105,78.01112666666667)" d="M2.7386127875258306,0A2.7386127875258306,2.7386127875258306,0,1,1,-2.7386127875258306,0A2.7386127875258306,2.7386127875258306,0,1,1,2.7386127875258306,0" style="fill: #4c78a8; stroke-width: 2;"></path><path transform="translate(35,62.37777)" d="M2.7386127875258306,0A2.7386127875258306,2.7386127875258306,0,1,1,-2.7386127875258306,0A2.7386127875258306,2.7386127875258306,0,1,1,2.7386127875258306,0" style="fill: #4c78a8; stroke-width: 2;"></path><path transform="translate(49,77.93333333333334)" d="M2.7386127875258306,0A2.7386127875258306,2.7386127875258306,0,1,1,-2.7386127875258306,0A2.7386127875258306,2.7386127875258306,0,1,1,2.7386127875258306,0" style="fill: #4c78a8; stroke-width: 2;"></path><path transform="translate(77,86.87777)" d="M2.7386127875258306,0A2.7386127875258306,2.7386127875258306,0,1,1,-2.7386127875258306,0A2.7386127875258306,2.7386127875258306,0,1,1,2.7386127875258306,0" style="fill: #4c78a8; stroke-width: 2;"></path><path transform="translate(63,105.77777)" d="M2.7386127875258306,0A2.7386127875258306,2.7386127875258306,0,1,1,-2.7386127875258306,0A2.7386127875258306,2.7386127875258306,0,1,1,2.7386127875258306,0" style="fill: #4c78a8; stroke-width: 2;"></path><path transform="translate(133,71.63333333333334)" d="M2.7386127875258306,0A2.7386127875258306,2.7386127875258306,0,1,1,-2.7386127875258306,0A2.7386127875258306,2.7386127875258306,0,1,1,2.7386127875258306,0" style="fill: #4c78a8; stroke-width: 2;"></path><path transform="translate(21,100.56666666666666)" d="M2.7386127875258306,0A2.7386127875258306,2.7386127875258306,0,1,1,-2.7386127875258306,0A2.7386127875258306,2.7386127875258306,0,1,1,2.7386127875258306,0" style="fill: #f58518; stroke-width: 2;"></path><path transform="translate(7,77.46666666666667)" d="M2.7386127875258306,0A2.7386127875258306,2.7386127875258306,0,1,1,-2.7386127875258306,0A2.7386127875258306,2.7386127875258306,0,1,1,2.7386127875258306,0" style="fill: #f58518; stroke-width: 2;"></path><path transform="translate(91,99.32220666666666)" d="M2.7386127875258306,0A2.7386127875258306,2.7386127875258306,0,1,1,-2.7386127875258306,0A2.7386127875258306,2.7386127875258306,0,1,1,2.7386127875258306,0" style="fill: #f58518; stroke-width: 2;"></path><path transform="translate(119,100.8)" d="M2.7386127875258306,0A2.7386127875258306,2.7386127875258306,0,1,1,-2.7386127875258306,0A2.7386127875258306,2.7386127875258306,0,1,1,2.7386127875258306,0" style="fill: #f58518; stroke-width: 2;"></path><path transform="translate(105,95.51110333333334)" d="M2.7386127875258306,0A2.7386127875258306,2.7386127875258306,0,1,1,-2.7386127875258306,0A2.7386127875258306,2.7386127875258306,0,1,1,2.7386127875258306,0" style="fill: #f58518; stroke-width: 2;"></path><path transform="translate(35,101.65554)" d="M2.7386127875258306,0A2.7386127875258306,2.7386127875258306,0,1,1,-2.7386127875258306,0A2.7386127875258306,2.7386127875258306,0,1,1,2.7386127875258306,0" style="fill: #f58518; stroke-width: 2;"></path><path transform="translate(49,103.67777000000001)" d="M2.7386127875258306,0A2.7386127875258306,2.7386127875258306,0,1,1,-2.7386127875258306,0A2.7386127875258306,2.7386127875258306,0,1,1,2.7386127875258306,0" style="fill: #f58518; stroke-width: 2;"></path><path transform="translate(77,97.84443666666667)" d="M2.7386127875258306,0A2.7386127875258306,2.7386127875258306,0,1,1,-2.7386127875258306,0A2.7386127875258306,2.7386127875258306,0,1,1,2.7386127875258306,0" style="fill: #f58518; stroke-width: 2;"></path><path transform="translate(63,93.33333333333334)" d="M2.7386127875258306,0A2.7386127875258306,2.7386127875258306,0,1,1,-2.7386127875258306,0A2.7386127875258306,2.7386127875258306,0,1,1,2.7386127875258306,0" style="fill: #f58518; stroke-width: 2;"></path><path transform="translate(133,74.66666666666667)" d="M2.7386127875258306,0A2.7386127875258306,2.7386127875258306,0,1,1,-2.7386127875258306,0A2.7386127875258306,2.7386127875258306,0,1,1,2.7386127875258306,0" style="fill: #f58518; stroke-width: 2;"></path></g><g class="mark-group role-axis"><g transform="translate(0.5,140.5)"><path class="background" d="M0,0h0v0h0Z" style="pointer-events: none; fill: none;"></path><g><g class="mark-rule role-axis-tick" style="pointer-events: none;"><line transform="translate(7,0)" x2="0" y2="5" style="fill: none; stroke: #888; stroke-width: 1; opacity: 1;"></line><line transform="translate(21,0)" x2="0" y2="5" style="fill: none; stroke: #888; stroke-width: 1; opacity: 1;"></line><line transform="translate(35,0)" x2="0" y2="5" style="fill: none; stroke: #888; stroke-width: 1; opacity: 1;"></line><line transform="translate(49,0)" x2="0" y2="5" style="fill: none; stroke: #888; stroke-width: 1; opacity: 1;"></line><line transform="translate(63,0)" x2="0" y2="5" style="fill: none; stroke: #888; stroke-width: 1; opacity: 1;"></line><line transform="translate(77,0)" x2="0" y2="5" style="fill: none; stroke: #888; stroke-width: 1; opacity: 1;"></line><line transform="translate(91,0)" x2="0" y2="5" style="fill: none; stroke: #888; stroke-width: 1; opacity: 1;"></line><line transform="translate(105,0)" x2="0" y2="5" style="fill: none; stroke: #888; stroke-width: 1; opacity: 1;"></line><line transform="translate(119,0)" x2="0" y2="5" style="fill: none; stroke: #888; stroke-width: 1; opacity: 1;"></line><line transform="translate(133,0)" x2="0" y2="5" style="fill: none; stroke: #888; stroke-width: 1; opacity: 1;"></line></g><g class="mark-text role-axis-label" style="pointer-events: none;"><text text-anchor="end" transform="translate(7,7) rotate(270) translate(0,3)" style="font-family: Helvetica Neue; font-size: 10px; font-weight: normal; fill: #000; opacity: 1;">Glabron</text><text text-anchor="end" transform="translate(21,7) rotate(270) translate(0,3)" style="font-family: Helvetica Neue; font-size: 10px; font-weight: normal; fill: #000; opacity: 1;">Manchuria</text><text text-anchor="end" transform="translate(35,7) rotate(270) translate(0,3)" style="font-family: Helvetica Neue; font-size: 10px; font-weight: normal; fill: #000; opacity: 1;">No. 457</text><text text-anchor="end" transform="translate(49,7) rotate(270) translate(0,3)" style="font-family: Helvetica Neue; font-size: 10px; font-weight: normal; fill: #000; opacity: 1;">No. 462</text><text text-anchor="end" transform="translate(63,7) rotate(270) translate(0,3)" style="font-family: Helvetica Neue; font-size: 10px; font-weight: normal; fill: #000; opacity: 1;">No. 475</text><text text-anchor="end" transform="translate(77,7) rotate(270) translate(0,3)" style="font-family: Helvetica Neue; font-size: 10px; font-weight: normal; fill: #000; opacity: 1;">Peatland</text><text text-anchor="end" transform="translate(91,7) rotate(270) translate(0,3)" style="font-family: Helvetica Neue; font-size: 10px; font-weight: normal; fill: #000; opacity: 1;">Svansota</text><text text-anchor="end" transform="translate(105,7) rotate(270) translate(0,3)" style="font-family: Helvetica Neue; font-size: 10px; font-weight: normal; fill: #000; opacity: 1;">Trebi</text><text text-anchor="end" transform="translate(119,7) rotate(270) translate(0,3)" style="font-family: Helvetica Neue; font-size: 10px; font-weight: normal; fill: #000; opacity: 1;">Velvet</text><text text-anchor="end" transform="translate(133,7) rotate(270) translate(0,3)" style="font-family: Helvetica Neue; font-size: 10px; font-weight: normal; fill: #000; opacity: 1;">Wisconsin No. 38</text></g><g class="mark-rule role-axis-domain" style="pointer-events: none;"><line transform="translate(0,0)" x2="140" y2="0" style="fill: none; stroke: #888; stroke-width: 1; opacity: 1;"></line></g></g></g></g></g></g><g transform="translate(725,0)"><path class="background" d="M0.5,0.5h140v140h-140Z" style="fill: none; stroke: #ddd; stroke-width: 0;"></path><g><g class="mark-group role-scope child_layer_0_pathgroup"><g transform="translate(0,0)"><path class="background" d="M0,0h140v140h-140Z" style="fill: none;"></path><g><g class="mark-line role-mark child_layer_0_marks"><path d="M7,34.53333333333332L21,49.311103333333335L35,27.766666666666666L49,9.877700000000004L63,54.21110333333334L77,50.01112666666667L91,52.88889666666667L105,14.388966666666661L119,46.12222999999999L133,26.13333333333334" style="fill: none; stroke: #4c78a8; stroke-width: 2;"></path></g></g></g><g transform="translate(0,0)"><path class="background" d="M0,0h140v140h-140Z" style="fill: none;"></path><g><g class="mark-line role-mark child_layer_0_marks"><path d="M7,75.28889666666666L21,85.24443666666667L35,64.86666666666666L49,59.03333333333333L63,67.04443666666667L77,79.25556333333333L91,73.5L105,48.45563333333334L119,76.06666666666666L133,27.61110333333332" style="fill: none; stroke: #f58518; stroke-width: 2;"></path></g></g></g></g><g class="mark-symbol role-mark child_layer_1_marks"><path transform="translate(21,49.311103333333335)" d="M2.7386127875258306,0A2.7386127875258306,2.7386127875258306,0,1,1,-2.7386127875258306,0A2.7386127875258306,2.7386127875258306,0,1,1,2.7386127875258306,0" style="fill: #4c78a8; stroke-width: 2;"></path><path transform="translate(7,34.53333333333332)" d="M2.7386127875258306,0A2.7386127875258306,2.7386127875258306,0,1,1,-2.7386127875258306,0A2.7386127875258306,2.7386127875258306,0,1,1,2.7386127875258306,0" style="fill: #4c78a8; stroke-width: 2;"></path><path transform="translate(91,52.88889666666667)" d="M2.7386127875258306,0A2.7386127875258306,2.7386127875258306,0,1,1,-2.7386127875258306,0A2.7386127875258306,2.7386127875258306,0,1,1,2.7386127875258306,0" style="fill: #4c78a8; stroke-width: 2;"></path><path transform="translate(119,46.12222999999999)" d="M2.7386127875258306,0A2.7386127875258306,2.7386127875258306,0,1,1,-2.7386127875258306,0A2.7386127875258306,2.7386127875258306,0,1,1,2.7386127875258306,0" style="fill: #4c78a8; stroke-width: 2;"></path><path transform="translate(105,14.388966666666661)" d="M2.7386127875258306,0A2.7386127875258306,2.7386127875258306,0,1,1,-2.7386127875258306,0A2.7386127875258306,2.7386127875258306,0,1,1,2.7386127875258306,0" style="fill: #4c78a8; stroke-width: 2;"></path><path transform="translate(35,27.766666666666666)" d="M2.7386127875258306,0A2.7386127875258306,2.7386127875258306,0,1,1,-2.7386127875258306,0A2.7386127875258306,2.7386127875258306,0,1,1,2.7386127875258306,0" style="fill: #4c78a8; stroke-width: 2;"></path><path transform="translate(49,9.877700000000004)" d="M2.7386127875258306,0A2.7386127875258306,2.7386127875258306,0,1,1,-2.7386127875258306,0A2.7386127875258306,2.7386127875258306,0,1,1,2.7386127875258306,0" style="fill: #4c78a8; stroke-width: 2;"></path><path transform="translate(77,50.01112666666667)" d="M2.7386127875258306,0A2.7386127875258306,2.7386127875258306,0,1,1,-2.7386127875258306,0A2.7386127875258306,2.7386127875258306,0,1,1,2.7386127875258306,0" style="fill: #4c78a8; stroke-width: 2;"></path><path transform="translate(63,54.21110333333334)" d="M2.7386127875258306,0A2.7386127875258306,2.7386127875258306,0,1,1,-2.7386127875258306,0A2.7386127875258306,2.7386127875258306,0,1,1,2.7386127875258306,0" style="fill: #4c78a8; stroke-width: 2;"></path><path transform="translate(133,26.13333333333334)" d="M2.7386127875258306,0A2.7386127875258306,2.7386127875258306,0,1,1,-2.7386127875258306,0A2.7386127875258306,2.7386127875258306,0,1,1,2.7386127875258306,0" style="fill: #4c78a8; stroke-width: 2;"></path><path transform="translate(21,85.24443666666667)" d="M2.7386127875258306,0A2.7386127875258306,2.7386127875258306,0,1,1,-2.7386127875258306,0A2.7386127875258306,2.7386127875258306,0,1,1,2.7386127875258306,0" style="fill: #f58518; stroke-width: 2;"></path><path transform="translate(7,75.28889666666666)" d="M2.7386127875258306,0A2.7386127875258306,2.7386127875258306,0,1,1,-2.7386127875258306,0A2.7386127875258306,2.7386127875258306,0,1,1,2.7386127875258306,0" style="fill: #f58518; stroke-width: 2;"></path><path transform="translate(91,73.5)" d="M2.7386127875258306,0A2.7386127875258306,2.7386127875258306,0,1,1,-2.7386127875258306,0A2.7386127875258306,2.7386127875258306,0,1,1,2.7386127875258306,0" style="fill: #f58518; stroke-width: 2;"></path><path transform="translate(119,76.06666666666666)" d="M2.7386127875258306,0A2.7386127875258306,2.7386127875258306,0,1,1,-2.7386127875258306,0A2.7386127875258306,2.7386127875258306,0,1,1,2.7386127875258306,0" style="fill: #f58518; stroke-width: 2;"></path><path transform="translate(105,48.45563333333334)" d="M2.7386127875258306,0A2.7386127875258306,2.7386127875258306,0,1,1,-2.7386127875258306,0A2.7386127875258306,2.7386127875258306,0,1,1,2.7386127875258306,0" style="fill: #f58518; stroke-width: 2;"></path><path transform="translate(35,64.86666666666666)" d="M2.7386127875258306,0A2.7386127875258306,2.7386127875258306,0,1,1,-2.7386127875258306,0A2.7386127875258306,2.7386127875258306,0,1,1,2.7386127875258306,0" style="fill: #f58518; stroke-width: 2;"></path><path transform="translate(49,59.03333333333333)" d="M2.7386127875258306,0A2.7386127875258306,2.7386127875258306,0,1,1,-2.7386127875258306,0A2.7386127875258306,2.7386127875258306,0,1,1,2.7386127875258306,0" style="fill: #f58518; stroke-width: 2;"></path><path transform="translate(77,79.25556333333333)" d="M2.7386127875258306,0A2.7386127875258306,2.7386127875258306,0,1,1,-2.7386127875258306,0A2.7386127875258306,2.7386127875258306,0,1,1,2.7386127875258306,0" style="fill: #f58518; stroke-width: 2;"></path><path transform="translate(63,67.04443666666667)" d="M2.7386127875258306,0A2.7386127875258306,2.7386127875258306,0,1,1,-2.7386127875258306,0A2.7386127875258306,2.7386127875258306,0,1,1,2.7386127875258306,0" style="fill: #f58518; stroke-width: 2;"></path><path transform="translate(133,27.61110333333332)" d="M2.7386127875258306,0A2.7386127875258306,2.7386127875258306,0,1,1,-2.7386127875258306,0A2.7386127875258306,2.7386127875258306,0,1,1,2.7386127875258306,0" style="fill: #f58518; stroke-width: 2;"></path></g><g class="mark-group role-axis"><g transform="translate(0.5,140.5)"><path class="background" d="M0,0h0v0h0Z" style="pointer-events: none; fill: none;"></path><g><g class="mark-rule role-axis-tick" style="pointer-events: none;"><line transform="translate(7,0)" x2="0" y2="5" style="fill: none; stroke: #888; stroke-width: 1; opacity: 1;"></line><line transform="translate(21,0)" x2="0" y2="5" style="fill: none; stroke: #888; stroke-width: 1; opacity: 1;"></line><line transform="translate(35,0)" x2="0" y2="5" style="fill: none; stroke: #888; stroke-width: 1; opacity: 1;"></line><line transform="translate(49,0)" x2="0" y2="5" style="fill: none; stroke: #888; stroke-width: 1; opacity: 1;"></line><line transform="translate(63,0)" x2="0" y2="5" style="fill: none; stroke: #888; stroke-width: 1; opacity: 1;"></line><line transform="translate(77,0)" x2="0" y2="5" style="fill: none; stroke: #888; stroke-width: 1; opacity: 1;"></line><line transform="translate(91,0)" x2="0" y2="5" style="fill: none; stroke: #888; stroke-width: 1; opacity: 1;"></line><line transform="translate(105,0)" x2="0" y2="5" style="fill: none; stroke: #888; stroke-width: 1; opacity: 1;"></line><line transform="translate(119,0)" x2="0" y2="5" style="fill: none; stroke: #888; stroke-width: 1; opacity: 1;"></line><line transform="translate(133,0)" x2="0" y2="5" style="fill: none; stroke: #888; stroke-width: 1; opacity: 1;"></line></g><g class="mark-text role-axis-label" style="pointer-events: none;"><text text-anchor="end" transform="translate(7,7) rotate(270) translate(0,3)" style="font-family: Helvetica Neue; font-size: 10px; font-weight: normal; fill: #000; opacity: 1;">Glabron</text><text text-anchor="end" transform="translate(21,7) rotate(270) translate(0,3)" style="font-family: Helvetica Neue; font-size: 10px; font-weight: normal; fill: #000; opacity: 1;">Manchuria</text><text text-anchor="end" transform="translate(35,7) rotate(270) translate(0,3)" style="font-family: Helvetica Neue; font-size: 10px; font-weight: normal; fill: #000; opacity: 1;">No. 457</text><text text-anchor="end" transform="translate(49,7) rotate(270) translate(0,3)" style="font-family: Helvetica Neue; font-size: 10px; font-weight: normal; fill: #000; opacity: 1;">No. 462</text><text text-anchor="end" transform="translate(63,7) rotate(270) translate(0,3)" style="font-family: Helvetica Neue; font-size: 10px; font-weight: normal; fill: #000; opacity: 1;">No. 475</text><text text-anchor="end" transform="translate(77,7) rotate(270) translate(0,3)" style="font-family: Helvetica Neue; font-size: 10px; font-weight: normal; fill: #000; opacity: 1;">Peatland</text><text text-anchor="end" transform="translate(91,7) rotate(270) translate(0,3)" style="font-family: Helvetica Neue; font-size: 10px; font-weight: normal; fill: #000; opacity: 1;">Svansota</text><text text-anchor="end" transform="translate(105,7) rotate(270) translate(0,3)" style="font-family: Helvetica Neue; font-size: 10px; font-weight: normal; fill: #000; opacity: 1;">Trebi</text><text text-anchor="end" transform="translate(119,7) rotate(270) translate(0,3)" style="font-family: Helvetica Neue; font-size: 10px; font-weight: normal; fill: #000; opacity: 1;">Velvet</text><text text-anchor="end" transform="translate(133,7) rotate(270) translate(0,3)" style="font-family: Helvetica Neue; font-size: 10px; font-weight: normal; fill: #000; opacity: 1;">Wisconsin No. 38</text></g><g class="mark-rule role-axis-domain" style="pointer-events: none;"><line transform="translate(0,0)" x2="140" y2="0" style="fill: none; stroke: #888; stroke-width: 1; opacity: 1;"></line></g></g></g></g></g></g></g></g></g></g></g></svg>